<svg xmlns="http://www.w3.org/2000/svg" width="20.001" height="20" viewBox="0 0 20.001 20"><path d="M-468.041-225A5.965,5.965,0,0,1-474-230.957v-8.085A5.964,5.964,0,0,1-468.042-245h8.084A5.965,5.965,0,0,1-454-239.043v8.085A5.965,5.965,0,0,1-459.958-225Zm-3.947-14.043v8.085a3.947,3.947,0,0,0,3.947,3.947h8.084a3.947,3.947,0,0,0,3.947-3.947h0v-8.085a3.947,3.947,0,0,0-3.947-3.947h-8.084A3.947,3.947,0,0,0-471.989-239.043ZM-469.18-235a5.188,5.188,0,0,1,5.18-5.18h0a5.187,5.187,0,0,1,5.182,5.18A5.188,5.188,0,0,1-464-229.819,5.188,5.188,0,0,1-469.18-235Zm2.013,0A3.166,3.166,0,0,0-464-231.834,3.165,3.165,0,0,0-460.835-235,3.165,3.165,0,0,0-464-238.165,3.166,3.166,0,0,0-467.167-235Zm7.114-5.134a1.237,1.237,0,0,1,1.237-1.238,1.238,1.238,0,0,1,1.237,1.238,1.237,1.237,0,0,1-1.237,1.237A1.236,1.236,0,0,1-460.053-240.134Z" transform="translate(474 245)"/></svg>