<svg xmlns="http://www.w3.org/2000/svg" width="20" height="16" viewBox="0 0 20 16"><path d="M20,1.907a8.292,8.292,0,0,1-2.356.637A4.07,4.07,0,0,0,19.448.31a8.349,8.349,0,0,1-2.607.98,4.12,4.12,0,0,0-3-1.275,4.073,4.073,0,0,0-4.1,4.04,3.987,3.987,0,0,0,.106.92A11.708,11.708,0,0,1,1.393.754a3.964,3.964,0,0,0-.554,2.03A4.02,4.02,0,0,0,2.663,6.147,4.151,4.151,0,0,1,.805,5.64v.05a4.061,4.061,0,0,0,3.29,3.963,4.216,4.216,0,0,1-1.08.141,3.942,3.942,0,0,1-.773-.075,4.1,4.1,0,0,0,3.832,2.807,8.312,8.312,0,0,1-5.1,1.727A8.771,8.771,0,0,1,0,14.2a11.727,11.727,0,0,0,6.289,1.818,11.5,11.5,0,0,0,11.673-11.5L17.948,4A8.126,8.126,0,0,0,20,1.907Z" transform="translate(0 -0.015)"/></svg>