<svg xmlns="http://www.w3.org/2000/svg" width="17.23" height="20" viewBox="0 0 17.23 20"><path d="M22.286,10.424h0a2.751,2.751,0,0,0-1.013-.106,2.705,2.705,0,0,0-2.082-1.554l.395-1.707A3.174,3.174,0,0,0,13.4,5.626l-.068.3-.068-.3A3.174,3.174,0,0,0,7.081,7.057l1.1,4.763a1.829,1.829,0,0,0-.671,1.617v2.386a7.211,7.211,0,0,0,7.214,7.344,7.477,7.477,0,0,0,7.131-5.114,2.726,2.726,0,0,0,1.6-1.757l.657-2.471A2.734,2.734,0,0,0,22.286,10.424Zm-.8,5.006a1.063,1.063,0,1,1-2.022-.655l.574-1.96.038-.119a1.06,1.06,0,0,1,1.328-.676,1.3,1.3,0,0,1,.719.53,1.324,1.324,0,0,1,.058.66l-.2.656Zm-2.36-3.008-.029.1-.8,2.524a1.054,1.054,0,0,1-1.873.29,2.116,2.116,0,0,0,.5-3l.339-1.064a1.063,1.063,0,1,1,2.026.645l-.153.48C19.128,12.407,19.124,12.413,19.121,12.421ZM9.935,5.307a1.062,1.062,0,0,1,1.274.8l1.184,3.852a1.022,1.022,0,0,0,.941.818,1,1,0,0,0,.957-.818L15.46,6.1a1.062,1.062,0,0,1,1.274-.8,1.064,1.064,0,0,1,.8,1.275L16.4,10.788c-.027.062-.059.121-.08.186l-.219.687a2.114,2.114,0,0,0-.9-.209H10.419c-.051,0-.1.011-.148.014L9.14,6.581A1.062,1.062,0,0,1,9.935,5.307Zm4.792,15.749a5.07,5.07,0,0,1-5.181-5.122v-.875s0-.006,0-.01V13.362a.869.869,0,0,1,.87-.925H15.2a1.15,1.15,0,0,1,0,2.3H12.573a.492.492,0,0,0,0,.985,1.539,1.539,0,0,1,1.071.5,2.466,2.466,0,0,1,.639,1.811.492.492,0,0,0,.479.505h.013a.493.493,0,0,0,.492-.479,3.5,3.5,0,0,0-.751-2.336h.68a2.124,2.124,0,0,0,.281-.029,2.042,2.042,0,0,0,3.249.472,2.03,2.03,0,0,0,1.12.894c.03.009.06.013.09.021A5.371,5.371,0,0,1,14.727,21.055Z" transform="translate(-6.999 -3.167)"/></svg>