<svg xmlns="http://www.w3.org/2000/svg" width="23.999" height="19.446" viewBox="0 0 23.999 19.446"><path d="M21.938,6.281a6.315,6.315,0,0,0-1.625.125.925.925,0,0,0,.375,1.813,4.5,4.5,0,0,1,5.25,5.813.919.919,0,0,0,1.75.563,6.343,6.343,0,0,0-5.75-8.313Zm-8.281,2.75c-1.676.18-4.016,1.484-6.094,3.563C5.3,14.859,4,17.27,4,19.344c0,3.969,5.082,6.375,10.063,6.375,6.527,0,10.875-3.8,10.875-6.812a3.638,3.638,0,0,0-2.906-3.281c-.34-.1-.582-.148-.406-.594a2.556,2.556,0,0,0,.031-2.406c-.777-1.113-2.934-1.055-5.375-.031,0,0-.758.359-.562-.25a2.764,2.764,0,0,0-.281-2.813A2.091,2.091,0,0,0,13.656,9.031Zm8.125.5A3.091,3.091,0,0,0,21,9.594a.827.827,0,0,0-.625.969.781.781,0,0,0,.938.594,1.568,1.568,0,0,1,1.469.469,1.492,1.492,0,0,1,.313,1.469.791.791,0,0,0,1.5.5,3.126,3.126,0,0,0-2.812-4.063Zm-7.187,5.281c3.32.117,5.992,1.781,6.219,4.063.258,2.609-2.746,5.047-6.719,5.438s-7.43-1.422-7.688-4.031,2.777-5.047,6.75-5.437A10.472,10.472,0,0,1,14.594,14.813ZM13.031,16.75a4.248,4.248,0,0,0-3.406,2.219A2.961,2.961,0,0,0,11.5,23.188,4.3,4.3,0,0,0,16.625,21a2.944,2.944,0,0,0-2.156-4.125A4.162,4.162,0,0,0,13.031,16.75Zm.906,2.188a.36.36,0,0,1,.156.031.407.407,0,0,1,.219.594.575.575,0,0,1-.687.25.4.4,0,0,1-.187-.594A.613.613,0,0,1,13.938,18.938Zm-1.844.563a1.352,1.352,0,0,1,.5.094,1.059,1.059,0,0,1,.438,1.594,1.5,1.5,0,0,1-1.812.625,1.061,1.061,0,0,1-.406-1.594A1.531,1.531,0,0,1,12.094,19.5Z" transform="translate(-4 -6.273)"/></svg>