<svg xmlns="http://www.w3.org/2000/svg" width="532.342" height="65.126" viewBox="0 0 532.342 65.126"><path d="M525.562-483.271a31.483,31.483,0,0,1-14.075-3.235,33.942,33.942,0,0,1-11.422-9.166l12.865-10.454a17.5,17.5,0,0,0,5.653,4.837,14.67,14.67,0,0,0,6.978,1.716,14.157,14.157,0,0,0,6.043-1.289,15.546,15.546,0,0,0,4.8-3.433,16.1,16.1,0,0,0,3.2-4.993,15.756,15.756,0,0,0,1.17-6.046,15.554,15.554,0,0,0-1.17-5.968,16.593,16.593,0,0,0-3.2-5.032,14.621,14.621,0,0,0-4.835-3.432,14.8,14.8,0,0,0-6.082-1.248,16.215,16.215,0,0,0-9.512,3.2l-12.475-10.922a35.016,35.016,0,0,1,10.37-6.436,31.477,31.477,0,0,1,11.7-2.224,30.945,30.945,0,0,1,12.516,2.535,32,32,0,0,1,10.136,6.943,33.058,33.058,0,0,1,6.822,10.22,31.011,31.011,0,0,1,2.5,12.364,31.01,31.01,0,0,1-2.5,12.364,33.056,33.056,0,0,1-6.822,10.22,31.988,31.988,0,0,1-10.136,6.943,30.939,30.939,0,0,1-12.267,2.536Zm236.7-1.947v-32.153l-20.879,32.153H725.23v-60.191h16.147v32.464l20.958-32.464h15.991v60.191Zm-327.65-.147L456.985-545.9h14.269l22.379,60.537H476.556l-3.109-8.32h.015l-4.553-14.145,0,0h0v0h0l-4.755-15.989-4.833,15.989h0l-4.49,14.124H454.8l-3.119,8.348Zm-84.581,0H315.718V-545.9h31.657a15.538,15.538,0,0,1,3.546.429,18.356,18.356,0,0,1,3.585,1.248,20.354,20.354,0,0,1,3.275,1.911,13.733,13.733,0,0,1,2.611,2.418,17.441,17.441,0,0,1,3,5.227,17.172,17.172,0,0,1,1.057,5.931,16.785,16.785,0,0,1-1.4,6.748,16.423,16.423,0,0,1-4.054,5.656,15.97,15.97,0,0,1,3.158,2.652,16.845,16.845,0,0,1,2.456,3.433,19.242,19.242,0,0,1,1.6,3.94,14.719,14.719,0,0,1,.585,4.018,16.736,16.736,0,0,1-1.288,6.512,16.547,16.547,0,0,1-3.586,5.383,17.77,17.77,0,0,1-5.341,3.667,15.807,15.807,0,0,1-6.427,1.366Zm-18.4-12.794h11.382a6.121,6.121,0,0,0,4.368-1.794,6.129,6.129,0,0,0,1.794-4.37,5.858,5.858,0,0,0-1.794-4.291,5.94,5.94,0,0,0-4.367-1.795H331.627Zm0-23.248h10.837a5.916,5.916,0,0,0,4.327-1.833,6.03,6.03,0,0,0,1.832-4.33,6.03,6.03,0,0,0-1.832-4.33,5.916,5.916,0,0,0-4.327-1.833H331.624Zm363.69,36.042V-545.9h16.3v60.538Zm-59.647,0V-545.9H662.88a24.012,24.012,0,0,1,8.382,1.482,22.93,22.93,0,0,1,7.1,4.135,19.859,19.859,0,0,1,4.912,6.4A18.381,18.381,0,0,1,685.1-525.7a19.562,19.562,0,0,1-1.832,8.425,22.547,22.547,0,0,1-4.912,6.826,23.178,23.178,0,0,1-7.1,4.6,21.534,21.534,0,0,1-8.382,1.677H651.886v18.8Zm16.608-34.014h9.433a7.012,7.012,0,0,0,2.651-.5,6.832,6.832,0,0,0,3.667-3.451,6.276,6.276,0,0,0,0-5.12,6.83,6.83,0,0,0-3.665-3.451,7.013,7.013,0,0,0-2.651-.5h-9.433Zm173.854,33.666L809.6-505.983v20.27H793.062v-60.268H809.6v20.27l16.534-20.27h20.337l-24.608,28.5,23.83,31.765Zm-224.546,0-16.534-20.27v20.27H568.515v-60.268h16.534v20.27l16.534-20.27h20.338l-24.608,28.5,23.83,31.765Zm-222.435,0v-60.268h16.688v45.356h31.671v14.912Z" transform="translate(-315.218 547.896)" fill="#fff" stroke="rgba(0,0,0,0)" stroke-miterlimit="10" stroke-width="1"/></svg>