<svg xmlns="http://www.w3.org/2000/svg" width="20.002" height="20" viewBox="0 0 20.002 20"><path d="M20,5.539c0-.2,0-.4-.008-.6a8.683,8.683,0,0,0-.117-1.314,4.434,4.434,0,0,0-.411-1.25A4.19,4.19,0,0,0,17.629.536,4.417,4.417,0,0,0,16.382.125,9.056,9.056,0,0,0,15.068.008L14.462,0H5.539c-.2,0-.4,0-.6.008A8.683,8.683,0,0,0,3.623.125,4.394,4.394,0,0,0,2.375.539,4.215,4.215,0,0,0,.536,2.375a4.405,4.405,0,0,0-.411,1.25A9.056,9.056,0,0,0,.008,4.939L0,5.539v8.92c0,.2,0,.4.008.6a8.683,8.683,0,0,0,.117,1.314,4.434,4.434,0,0,0,.411,1.25,4.19,4.19,0,0,0,1.836,1.836,4.417,4.417,0,0,0,1.247.411,9.057,9.057,0,0,0,1.314.117c.2.006.4.008.6.008.239,0,.478,0,.717,0h8.2c.2,0,.4,0,.6-.008a8.683,8.683,0,0,0,1.314-.117,4.388,4.388,0,0,0,1.247-.411,4.224,4.224,0,0,0,1.064-.772,4.174,4.174,0,0,0,.772-1.064,4.405,4.405,0,0,0,.411-1.25,9.056,9.056,0,0,0,.117-1.314c.006-.2.008-.4.008-.6,0-.239,0-.478,0-.717V6.256C20,6.017,20,5.778,20,5.539Zm-5.359,7.476a3.462,3.462,0,0,1-.056.736,1.879,1.879,0,0,1-.292.686,1.731,1.731,0,0,1-.547.506,2.177,2.177,0,0,1-.694.253,2.707,2.707,0,0,1-1.072.056,1.5,1.5,0,0,1-.722-.367,1.555,1.555,0,0,1-.081-2.234,1.74,1.74,0,0,1,.65-.417,6.7,6.7,0,0,1,1.1-.278c.131-.025.258-.053.389-.078a.666.666,0,0,0,.433-.222.726.726,0,0,0,.119-.494V6.756c0-.336-.15-.428-.472-.367-.231.044-5.173,1.042-5.173,1.042-.278.067-.378.158-.378.506V14.39a3.475,3.475,0,0,1-.067.736,1.879,1.879,0,0,1-.292.686,1.731,1.731,0,0,1-.547.506,2.183,2.183,0,0,1-.694.256,2.707,2.707,0,0,1-1.072.056,1.508,1.508,0,0,1-.722-.369,1.581,1.581,0,0,1-.081-2.234,1.74,1.74,0,0,1,.65-.417,6.7,6.7,0,0,1,1.1-.278c.131-.025.258-.053.389-.078a.666.666,0,0,0,.433-.222.727.727,0,0,0,.131-.486V5.106a1.24,1.24,0,0,1,.014-.2.609.609,0,0,1,.2-.386.858.858,0,0,1,.369-.167h0l5.95-1.206c.053-.011.481-.086.531-.092.322-.028.5.183.5.525Z" fill-rule="evenodd"/></svg>