<svg xmlns="http://www.w3.org/2000/svg" width="51.5" height="20" viewBox="0 0 51.5 20"><path d="M188.2,916.12a7.37,7.37,0,0,0,.708,1.378,3.569,3.569,0,0,0,1.171,1.412c1.955,1.213,4.892-.605,6.766.876,1.049.829,1.864,3.267.561,4.241-.646.483-1.682.3-2.441.3-.08-.984-.363-2.931-1.139-3.6a1.914,1.914,0,0,0-3.048,1.157c-.143,1.328.553,2.907.84,4.2.7,3.161,1.565,6.289,2.219,9.46,1.334,0,2.679-.216,4.01-.308,1.365-.094,2.956-.109,4-1.144a4.1,4.1,0,0,0,.906-3.5c-.273-2.1-1.094-4.2-3.464-4.511a3.652,3.652,0,0,0,1.56-1.128,4.08,4.08,0,0,0,.513-2.569c-.135-1.92-.734-4.032-2.449-5.132-1.558-1-3.491-.9-5.263-.946-1.817-.044-3.63-.187-5.451-.187m31.639,11.716h.063a7.966,7.966,0,0,1-.518,3.383,1.1,1.1,0,0,1-1.549.583c-.745-.5-.348-1.506-.953-2.061a1.331,1.331,0,0,0-2.169.915c-.389,3.582,5.46,3.69,7.074,1.5,1-1.355.961-3.341,1.133-4.95.219-2.048.47-4.092.689-6.14a34.383,34.383,0,0,0,.366-3.509c-1.381,0-2.368.008-3.133,1.316a3.08,3.08,0,0,0-5.4-.564c-.984,1.515-.921,3.532-1,5.263a11.437,11.437,0,0,0,.185,3.7c.618,2.157,4.128,2.642,5.206.564m19.861-10.15h-2.694c-.26,0-.8-.1-1.019.064-.162.126-.169.44-.212.625-.115.5-.242,1-.357,1.5-.451,1.964-.893,3.934-1.38,5.889-.159.64-.624,1.794.089,2.255,1.255.811,1.793-1,2.145-1.817.685-1.593,1.28-3.225,1.951-4.824a31.309,31.309,0,0,0,1.477-3.7M226.607,928.9h-1.88c-.2,0-.546-.064-.715.064-.243.186-.208.849-.23,1.126-.089,1.1.015,2.392,1.2,2.876,3.365,1.378,7.031-2.421,6.173-5.758-.437-1.7-2.175-2.09-3.011-3.446a2,2,0,0,1,.412-2.493.767.767,0,0,1,1.331.362c.156.833-.576,1.892.546,2.351a1.377,1.377,0,0,0,.5.092,1.472,1.472,0,0,0,.627-.1,1.78,1.78,0,0,0,.9-1.282,3.831,3.831,0,0,0-.3-3.382,3.391,3.391,0,0,0-2.912-.872c-3.172.222-5.633,4.534-3.83,7.325.762,1.179,2.779,1.709,3.108,3.133a1.979,1.979,0,0,1-.656,1.866.861.861,0,0,1-1.28-.052c-.353-.49,0-1.269.027-1.814M218.9,919.34c.869-.2,1.378.344,1.486,1.166a15.623,15.623,0,0,1-.351,5.137c-.151.657-.375,1.4-1.135,1.537-.8.144-1.258-.58-1.31-1.286a19.508,19.508,0,0,1,.358-5.012c.111-.568.293-1.39.952-1.542m-11.967,1.354h-3.7c.6,3.22.614,6.638.929,9.9a14.383,14.383,0,0,0,.478,3.884c.848,2.083,4.521,2.274,5.36.063h.063c.389,1.347,1.987,1.088,3.07,1-.052-2.5-.125-5.007-.125-7.518,0-1.524.134-3.121-.011-4.636-.125-1.316.208-3.2-1.681-3.2a1.84,1.84,0,0,0-.752.132c-1.234.537-.984,2.666-.841,3.752.076.58-.008,1.172.032,1.754.113,1.656.182,3.352.182,5.012a5.643,5.643,0,0,1-.16,2.568,1.087,1.087,0,0,1-1.706.244,2.108,2.108,0,0,1-.446-1.309c-.267-3.856-.695-7.789-.695-11.653m-10.463,11.653-.94-5.075c.989,0,2.09-.265,2.944.409.978.772,1.525,3.23.5,4.151a3.96,3.96,0,0,1-2.5.515m37.466-3.408a1.357,1.357,0,0,0,.063,2.713A1.357,1.357,0,0,0,233.937,928.939Z" transform="translate(-188.201 -916.12)"/></svg>