<svg xmlns="http://www.w3.org/2000/svg" width="12.638" height="20" viewBox="0 0 12.638 20"><path d="M.083,19.944c-.133-.134-.094-7.8.044-8.823A3.909,3.909,0,0,1,3.591,7.39c.474-.081,2.3-.117,4.87-.1l4.111.034.033,1.758.033,1.758H8.824c-3.131,0-3.895.033-4.266.181-.809.324-.8.261-.864,4.825l-.06,4.111L1.9,19.994c-.224,0-.441.006-.642.006A6.151,6.151,0,0,1,.083,19.944Zm0-15.376A10.066,10.066,0,0,1,0,2.859C0,.98,0,.987,1.115.6,2.72.049,4.1.052,6.614.614A16.64,16.64,0,0,0,8.823.92,5.417,5.417,0,0,0,11.938.287,4.862,4.862,0,0,1,12.568,0a10.8,10.8,0,0,1,.064,1.65c0,1.882.021,1.838-1.076,2.322-1.491.658-2.568.7-4.99.2-.944-.195-2.1-.387-2.562-.427a6.567,6.567,0,0,0-3.21.6,2.531,2.531,0,0,1-.614.286C.138,4.634.119,4.608.08,4.568Z"/></svg>