<svg xmlns="http://www.w3.org/2000/svg" width="9.943" height="20" viewBox="0 0 9.943 20"><path d="M115.941,930.83a4.9,4.9,0,0,1-.052,1.219c-.866,3.3-4.507-1.743-5.579,1.219-.5,1.394.953,2.416,2.066,2.865a5.048,5.048,0,0,0,5.895-1.646c1.088-1.491.953-3.223.953-4.971v-8.348c0-1.057.442-3.447-.249-4.295-.817-1-1.633.273-2.471.362-.44.047-.962-.352-1.407-.432a4.793,4.793,0,0,0-3.377.664c-2.222,1.438-2.251,3.686-2.251,6.046a14.839,14.839,0,0,0,.191,4.127,4.76,4.76,0,0,0,6.281,3.189m-1.97-10.844a1.615,1.615,0,0,1,1.862.9,5.362,5.362,0,0,1,.108,1.876,23.121,23.121,0,0,1-.031,3.94,1.512,1.512,0,0,1-1.095,1.194c-2.754.686-2.157-3.4-2.157-4.946a6.62,6.62,0,0,1,.074-1.782,1.671,1.671,0,0,1,1.239-1.183Z" transform="translate(-109.42 -916.491)"/></svg>