<svg xmlns="http://www.w3.org/2000/svg" width="17.662" height="19.984" viewBox="0 0 17.662 19.984"><path d="M-543.7-191.461a7.429,7.429,0,0,1,7.429-7.429,7.429,7.429,0,0,1,7.429,7.429,7.428,7.428,0,0,1-7.429,7.429A7.429,7.429,0,0,1-543.7-191.461Zm4.253.077a3.21,3.21,0,0,0,3.21,3.21,3.211,3.211,0,0,0,3.211-3.21,3.211,3.211,0,0,0-3.211-3.21A3.21,3.21,0,0,0-539.451-191.383Zm7.721-9.821a2.828,2.828,0,0,1,2.844-2.812,2.828,2.828,0,0,1,2.844,2.812,2.828,2.828,0,0,1-2.844,2.813A2.828,2.828,0,0,1-531.73-201.2Z" transform="translate(543.703 204.016)"/></svg>