<svg xmlns="http://www.w3.org/2000/svg" width="20.087" height="20" viewBox="0 0 20.087 20"><path d="M86.8,930.844v-.056a5.965,5.965,0,0,1-1.869-1.918,5.353,5.353,0,0,1-.709-2.031c-.632-5.146,5.986-8.173,9.512-4.4,2.756,2.95,1.387,7.562-2.138,9.177a6.486,6.486,0,0,1-7.79-2.07c-2.827-3.717-.974-8.8,3.108-10.643a7.629,7.629,0,0,1,6.994.5,8.666,8.666,0,0,1,2.357,2.076c3.619,4.6,1.029,11.327-4.275,13.217a9.6,9.6,0,0,1-8.743-1.26c-.817-.564-1.375-1.385-2.143-1.973a8.526,8.526,0,0,0,2.99,3.121,10.213,10.213,0,0,0,15.954-7.69,9.6,9.6,0,0,0-.308-3.159,9.86,9.86,0,0,0-1.311-2.99c-3.359-5.143-10.8-5.891-15.35-1.99a9.068,9.068,0,0,0-2.185,2.779c-3.035,6.07,2.009,13.491,8.784,12.814a8.41,8.41,0,0,0,2.933-.842,8.219,8.219,0,0,0,2.571-1.988A7.715,7.715,0,0,0,96.8,924.3a7.231,7.231,0,0,0-9.718-4.552c-3.824,1.751-5.264,7.164-1.861,10.095a5.215,5.215,0,0,0,1.579,1Z" transform="translate(-79.989 -916.283)"/></svg>