<svg xmlns="http://www.w3.org/2000/svg" width="19.984" height="19.984" viewBox="0 0 19.984 19.984"><path d="M9.992,0a9.992,9.992,0,1,0,9.992,9.992A9.993,9.993,0,0,0,9.992,0ZM14.34,15.683a.688.688,0,0,1-.59.512.518.518,0,0,1-.344-.141,7.356,7.356,0,0,0-5.294-1.778,9.08,9.08,0,0,0-2.747.549c-.363.15-.74-.174-.839-.724A1.165,1.165,0,0,1,5,12.831a9.811,9.811,0,0,1,3.029-.62,8.939,8.939,0,0,1,2.917.32,8.09,8.09,0,0,1,3.146,1.737A1.361,1.361,0,0,1,14.34,15.683Zm1.27-3.063a.793.793,0,0,1-.7.512.677.677,0,0,1-.407-.141,9.816,9.816,0,0,0-6.271-1.778,12.427,12.427,0,0,0-3.253.549c-.431.15-.876-.174-.995-.724a1.091,1.091,0,0,1,.566-1.27,13.44,13.44,0,0,1,3.587-.62,12.453,12.453,0,0,1,3.456.32A10.2,10.2,0,0,1,15.32,11.2,1.2,1.2,0,0,1,15.61,12.62Zm.782-3a.958.958,0,0,1-.5-.142C10.835,6.4,4.276,8.234,4.21,8.252a.986.986,0,0,1-1.22-.721,1.04,1.04,0,0,1,.693-1.272,19.859,19.859,0,0,1,4.4-.62,18.63,18.63,0,0,1,4.24.32A13.921,13.921,0,0,1,16.893,7.7a1.058,1.058,0,0,1,.357,1.414.985.985,0,0,1-.858.513Z"/></svg>