<svg xmlns="http://www.w3.org/2000/svg" width="24.835" height="20" viewBox="0 0 24.835 20"><g transform="translate(0 0)"><path d="M11.388,20a.281.281,0,0,1-.281-.282V8.013a.281.281,0,0,1,.281-.282h2.16a.282.282,0,0,1,.282.282V19.718a.282.282,0,0,1-.282.282Zm3.654-3.986a.282.282,0,0,1-.282-.282V4.027a.282.282,0,0,1,.282-.282H17.2a.282.282,0,0,1,.282.282V15.732a.282.282,0,0,1-.282.282Zm-7.41,0a.282.282,0,0,1-.282-.282V4.027a.282.282,0,0,1,.282-.282h2.16a.282.282,0,0,1,.282.282V15.732a.282.282,0,0,1-.282.282ZM18.7,12.269a.282.282,0,0,1-.282-.282V.282A.282.282,0,0,1,18.7,0H20.86a.282.282,0,0,1,.282.282V11.987a.282.282,0,0,1-.282.282Zm-14.7,0a.281.281,0,0,1-.281-.282V.282A.281.281,0,0,1,4,0h2.16A.282.282,0,0,1,6.44.282V11.987a.282.282,0,0,1-.282.282Zm18.257-3.7a.144.144,0,0,1-.143-.144V2.451a.143.143,0,0,1,.143-.143h2.435a.144.144,0,0,1,.144.143V8.426a.144.144,0,0,1-.144.144ZM.144,8.57A.144.144,0,0,1,0,8.426V2.451a.143.143,0,0,1,.144-.143H2.579a.143.143,0,0,1,.144.143V8.426a.144.144,0,0,1-.144.144Z" transform="translate(0 0)"/></g></svg>